<svg xmlns="http://www.w3.org/2000/svg" xmlns:xlink="http://www.w3.org/1999/xlink" viewBox="0 0 800 929.24">
  <defs>
    <linearGradient id="e" y2="-1315.4" xlink:href="#a" gradientUnits="userSpaceOnUse" x2="104.57" y1="-1313.7" x1="211.81"/>
    <linearGradient id="a">
      <stop style="stop-color:maroon" offset="0"/>
      <stop style="stop-color:maroon;stop-opacity:0" offset="1"/>
    </linearGradient>
    <linearGradient id="f" y2="-1256.4" gradientUnits="userSpaceOnUse" x2="150.61" y1="-1221.3" x1="106.71">
      <stop style="stop-color:#fff" offset="0"/>
      <stop style="stop-color:#fff;stop-opacity:0" offset="1"/>
    </linearGradient>
    <linearGradient id="g" y2="-1315.4" xlink:href="#a" gradientUnits="userSpaceOnUse" x2="104.57" gradientTransform="translate(175.79 -71.7)" y1="-1313.7" x1="211.81"/>
    <linearGradient id="h" y2="-1450.1" gradientUnits="userSpaceOnUse" x2="369.95" gradientTransform="matrix(1 .0531 0 .46988 -4.95 -753.06)" y1="-1356.3" x1="355.11">
      <stop style="stop-color:#fff" offset="0"/>
      <stop style="stop-color:#fff;stop-opacity:0" offset="1"/>
    </linearGradient>
    <linearGradient id="i" y2="-1618" xlink:href="#b" gradientUnits="userSpaceOnUse" x2="-257.76" y1="-1858.6" x1="412.27"/>
    <linearGradient id="b">
      <stop style="stop-color:#fff" offset="0"/>
      <stop style="stop-color:#fff;stop-opacity:0" offset="1"/>
    </linearGradient>
    <linearGradient id="j" y2="-1518.5" gradientUnits="userSpaceOnUse" x2="70.35" y1="-1531.2" x1="473.77">
      <stop style="stop-color:#999" offset="0"/>
      <stop style="stop-color:#000;stop-opacity:0" offset="1"/>
    </linearGradient>
    <linearGradient id="k" y2="-1524.2" gradientUnits="userSpaceOnUse" x2="178.63" y1="-1359.2" x1="-271.61">
      <stop style="stop-color:#fff" offset="0"/>
      <stop style="stop-color:#fff;stop-opacity:0" offset="1"/>
    </linearGradient>
    <linearGradient id="l" y2="-1093.2" xlink:href="#b" gradientUnits="userSpaceOnUse" x2="-68.88" y1="-1999.4" x1="-351.08"/>
    <linearGradient id="m" y2="-1640.2" xlink:href="#b" gradientUnits="userSpaceOnUse" x2="-116.09" gradientTransform="translate(113.89 493.06)" y1="-1858.6" x1="412.27"/>
    <linearGradient id="n" y2="-1559.7" xlink:href="#b" gradientUnits="userSpaceOnUse" x2="-279.12" gradientTransform="translate(122.73 525.46)" y1="-1913.6" x1="490.83"/>
    <linearGradient id="p" y2="-1248.9" xlink:href="#c" gradientUnits="userSpaceOnUse" x2="259.55" y1="-1257.8" x1="259.63"/>
    <linearGradient id="c">
      <stop style="stop-color:#fff;stop-opacity:.089286" offset="0"/>
      <stop style="stop-color:#fff" offset="1"/>
    </linearGradient>
    <linearGradient id="q" y2="-1251.9" xlink:href="#c" gradientUnits="userSpaceOnUse" x2="259.34" gradientTransform="matrix(-.68982 -.38814 .3772 -.70983 923.93 -2059.9)" y1="-1260" x1="261.13"/>
    <filter id="d" height="1.27" width="1.14" color-interpolation-filters="sRGB" y="-.14" x="-.07">
      <feGaussianBlur stdDeviation="19.77"/>
    </filter>
    <filter id="o" color-interpolation-filters="sRGB">
      <feGaussianBlur stdDeviation="1.2"/>
    </filter>
  </defs>
  <path d="M-183.33-1317l486.11-216.67 171.39 39.32-96.75 64.08 94.11 35.56 5.86 41.83-188.8-18.54-78.2 46.7-10.82 140.84-80.13-8.12-29.58-65.61L-25-1205.89z" style="opacity:.79204;filter:url(#d);fill:#333" transform="translate(244.34 2132.4) scale(1.0587)"/>
  <path style="fill:#000" d="M510.52 663.88l222.78 23.87c8.41 1.57 9.7-1.05 7.56-6.28 0 0-8.64-30.72-20.7-38.26-21.48-13.44-157.66-45.88-157.66-45.88z"/>
  <path d="M510.52 660.17L729.3 684.6c8.26 1.61 9.52-1.07 7.42-6.42 0 0-8.48-31.43-20.32-39.15-21.1-13.74-154.83-46.93-154.83-46.93z" style="fill:red"/>
  <path d="M452.29 699.24l.97 155.95c-.08 8.86-.75 10.54-10.33 11.37-16.6 1.22-48.72 2.14-63.42-7.2-25.29-16.07-43.67-106.06-43.67-106.06z" style="fill:#000"/>
  <path style="fill:red" d="M451.3 699.24l.93 152.1c-.09 8.64-.73 10.28-9.88 11.09-15.87 1.18-46.56 2.08-60.62-7.03C357.57 839.73 340 751.97 340 751.97z"/>
  <path d="M92.41-1318.3l102.03-44.44-1.02 44.9c.84 10.26-2.9 20.72-9.07 17.8-18.23-8.57-60.24-15.08-79.97 11.76-2.2 2.74-5.17 1.52-6.13-2.31z" style="fill:url(#e)" transform="translate(244.34 2132.4) scale(1.0587)"/>
  <path d="M113.56-1314.2c24.68 88.78 34.67 83.28 77.88 97.7-.07 7.8-4.1 9.28-11.94 10.01-13.6 1.08-36.43 1.88-48.47-6.34-20.72-14.14-35.77-93.36-35.77-93.36z" style="fill:url(#f)" transform="translate(244.34 2132.4) scale(1.0587)"/>
  <path style="fill:url(#g)" d="M268.21-1390l81.9-49.3 28.14 6.71c7.09 1.92 10.08 5.45-.74 9.11-16.91 5.73-40.44 4.37-58.43 27.4-2.22 2.73-4.83 7.06-10.3 8.09z" transform="translate(244.34 2132.4) scale(1.0587)"/>
  <path style="fill:url(#h)" d="M246.47-1393.1l206.65 21.81c7.8 1.13 9 0 7-2.48 0 0-8-14.37-19.18-18.39-19.93-7.16-146.24-28.6-146.24-28.6z" transform="translate(244.34 2132.4) scale(1.0587)"/>
  <path style="fill:red" d="M169.71 651.53l529.4-258.42c9.88-4.15 12.25-1.29 22.13-.77 6.19-.3 7.55-.31 8.61 5.25l20.35 103.86C599.02 659.59 433 723.22 210.98 807.35c-33.56-11.8-31.63-30.42-51.11-129.73-2.68-16.16-4.66-20.55 9.83-26.09z"/>
  <path d="M80.02 210.69L625.6 2.26c9.87-4.16 12.25-1.29 22.12-.77 6.19-.3 5.47 1.77 6.54 7.33l88.66 456.1c-159.5 144.64-356.22 221.1-542.22 308.9l-23.84-10.73L70.2 236.78c-2.68-16.16-4.66-20.56 9.83-26.1z" style="fill:#000"/>
  <path style="fill:#000" d="M94.4 229.75L650.88 12.22l83.73 439.73-535.1 300.97z"/>
  <path d="M-160.57-1623.5l367.8-139.49 161.75-53.8L-129.71-1619c-9.72 1.74-30.85-4.5-30.85-4.5z" style="fill:url(#i)" transform="translate(248.5 1932.77) scale(1.0587)"/>
  <path d="M119.32 220L636.94 14.79c9-4.62 11.95-3.67 13.92 6.14L739 461.32c-122.55 106.4-202.7 161.39-533.7 303.04L100 257.7c-5.67-27.89-5.28-27.77 19.32-37.68z" style="stroke:red;stroke-width:3;fill:#050000"/>
  <path d="M-122.26-1603.3l494.77-197.07 77.44 396.33-477.07 265.99z" style="stroke:url(#j);stroke-width:2;fill:#000" transform="translate(248.5 1932.77) scale(1.0587)"/>
  <path style="fill:url(#k)" d="M-112.89-1599.8l194.42-73.64 188.03 363.4-290.75 159.02z" transform="translate(248.5 1932.77) scale(1.0587)"/>
  <path style="fill:url(#l)" d="M-66.42-1107.3l-100.36-501.6 15.55 17.48c2.37 2.76 7.16 12.42 7.9 16.72l98.11 484.17z" transform="translate(248.5 1932.77) scale(1.0587)"/>
  <path style="fill:url(#m)" d="M-44.02-1122.9s82.73-61.99 177-86.54c53.47-11.05 93.7-24.88 132.19-38.97-77.32 45.27-188.91 94.19-310.16 149.2z" transform="translate(248.5 1932.77) scale(1.0587)"/>
  <path d="M-42.06-1090.5c140.44-63.84 237.9-112.07 322.36-158.23 10.7-2.11 24.32 24.01 21.2 31.74-80.26 49.2-201.68 103.02-337.66 150.18z" style="fill:url(#n)" transform="translate(248.5 1932.77) scale(1.0587)"/>
  <path style="filter:url(#o);fill:url(#linearGradient12106)" d="M-43.45-1091.9c134.88-63.84 369.7-161.08 508.55-290-119.35 121.71-368.13 230.74-508.55 290z" transform="translate(248.5 1932.77) scale(1.0587)"/>
  <path style="stroke:red;stroke-linecap:square;stroke-width:3;fill:red" d="M540.66 598.38c-2.5 4.58-9.21 5.74-14.98 2.59-5.76-3.15-8.4-9.43-5.9-14.01 2.5-4.59 9.21-5.75 14.98-2.6 5.77 3.16 8.41 9.44 5.9 14.02z"/>
  <g style="fill:#666">
    <path d="M526.27 588.63c-1.24 1.51.32 5.83 3.06 7.56 2.74 1.73 5.97 1.37 7.1-.92 1.14-2.3-.44-5.5-3.19-7.22a6.6 6.6 0 00-4.73-1.06l1.46 1.5c.84-.08 1.7.3 2.73.95 2.02 1.27 2.64 3.54 2.04 4.76-.6 1.21-2.47 1.76-4.47.48-2.17-1.38-2.6-3.73-2.33-4.68z" style="block-progression:tb;text-indent:0;color:#000;text-transform:none;fill:#666"/>
    <path d="M525.9 587.59c.27-.6.93-.95 1.5-1.1l4.92 4.86c-.4.25-.84.47-1.1.87z" style="fill:#666"/>
  </g>
  <path style="fill:url(#p)" d="M278.08-1261.4c-1.56 6.31-7.9 10.64-15.37 10.42-8.4-.26-14.9-6.08-14.25-11.84.02 8.12 19.83 17.25 29.62 1.42z" transform="matrix(.73031 .41092 -.39934 .7515 -166.34 1433.18)"/>
  <path d="M256.29-1272.4c2.72-4.24 9.76-4.95 14.83-1.88 5.7 3.44 8.46 10.27 4.46 15.17-.1-4.11-11.94-15.63-19.29-13.29z" style="fill:url(#q)" transform="translate(248.5 1932.77) scale(1.0587)"/>
</svg>